<svg width="48" height="48" viewBox="0 0 48 48" fill="none" xmlns="http://www.w3.org/2000/svg">
<path fill-rule="evenodd" clip-rule="evenodd" d="M4 24C4 12.96 12.98 4 24 4L24.5595 4.00769C35.3412 4.30433 44 13.1471 44 24C44 35.02 35.04 44 24 44C12.98 44 4 35.02 4 24ZM27.96 32C28.54 31.4 28.54 30.46 27.94 29.88L22.04 24L27.94 18.12C28.54 17.54 28.54 16.58 27.96 16C27.36 15.4 26.42 15.4 25.84 16L18.86 22.94C18.58 23.22 18.42 23.6 18.42 24C18.42 24.4 18.58 24.78 18.86 25.06L25.84 32C26.12 32.3 26.5 32.44 26.88 32.44C27.28 32.44 27.66 32.3 27.96 32Z" fill="#F9FAFB"/>
</svg>
