<svg width="28" height="28" viewBox="0 0 28 28" fill="none" xmlns="http://www.w3.org/2000/svg">
<path fill-rule="evenodd" clip-rule="evenodd" d="M13.6089 21.7368L6.68897 25.5278C6.13647 25.815 5.4558 25.6117 5.15122 25.0686V25.0686C5.06309 24.9004 5.01555 24.7139 5.01239 24.524V7.72615C5.01239 4.52249 7.20156 3.24103 10.3518 3.24103H17.7523C20.8064 3.24103 23.0917 4.43706 23.0917 7.51258V24.524C23.0917 24.8271 22.9713 25.1177 22.757 25.332C22.5428 25.5463 22.2521 25.6667 21.9491 25.6667C21.7558 25.6636 21.5658 25.6161 21.3938 25.5278L14.4312 21.7368C14.1746 21.5982 13.8654 21.5982 13.6089 21.7368Z" stroke="#F9FAFB" stroke-width="1.5" stroke-linecap="round" stroke-linejoin="round"/>
<path d="M9.76447 10.8764H18.2755" stroke="#F9FAFB" stroke-width="1.5" stroke-linecap="round" stroke-linejoin="round"/>
</svg>
