<svg width="32" height="33" viewBox="0 0 32 33" fill="none" xmlns="http://www.w3.org/2000/svg">
<path fill-rule="evenodd" clip-rule="evenodd" d="M12.2096 28.1952V24.1062C12.2096 23.0661 13.0575 22.2211 14.108 22.2141H17.9561C19.0117 22.2141 19.8673 23.0612 19.8673 24.1062V28.2079C19.8671 29.0909 20.579 29.8126 21.4707 29.8333H24.0361C26.5935 29.8333 28.6667 27.7809 28.6667 25.2491V13.6171C28.653 12.6211 28.1806 11.6858 27.384 11.0773L18.6103 4.08036C17.0732 2.86205 14.8883 2.86205 13.3512 4.08036L4.61603 11.09C3.81634 11.696 3.34318 12.6328 3.33333 13.6298V25.2491C3.33333 27.7809 5.4065 29.8333 7.96388 29.8333H10.5293C11.4431 29.8333 12.184 29.0999 12.184 28.1952" fill="#E11D48"/>
<path d="M12.2096 28.1952V24.1062C12.2096 23.0661 13.0575 22.2211 14.108 22.2141H17.9561C19.0117 22.2141 19.8673 23.0612 19.8673 24.1062V24.1062V28.2079C19.8671 29.0909 20.579 29.8126 21.4707 29.8333H24.0361C26.5935 29.8333 28.6667 27.7809 28.6667 25.2491V25.2491V13.6171C28.653 12.6211 28.1806 11.6858 27.384 11.0773L18.6103 4.08036C17.0732 2.86205 14.8883 2.86205 13.3512 4.08036L4.61603 11.09C3.81634 11.696 3.34318 12.6328 3.33333 13.6298V25.2491C3.33333 27.7809 5.4065 29.8333 7.96388 29.8333H10.5293C11.4431 29.8333 12.184 29.0999 12.184 28.1952V28.1952" stroke="#E11D48" stroke-width="1.5" stroke-linecap="round" stroke-linejoin="round"/>
</svg>
