<svg width="32" height="33" viewBox="0 0 32 33" fill="none" xmlns="http://www.w3.org/2000/svg">
<path d="M18.4663 6.16711V9.39378" stroke="#64748B" stroke-width="1.5" stroke-linecap="round" stroke-linejoin="round"/>
<path d="M18.4663 24.1802V26.8788" stroke="#64748B" stroke-width="1.5" stroke-linecap="round" stroke-linejoin="round"/>
<path d="M18.4663 19.5995V13.1715" stroke="#64748B" stroke-width="1.5" stroke-linecap="round" stroke-linejoin="round"/>
<path fill-rule="evenodd" clip-rule="evenodd" d="M24.9362 27.1667C27.3656 27.1667 29.3333 25.2234 29.3333 22.8242V19.3676C27.7258 19.3676 26.4311 18.089 26.4311 16.5014C26.4311 14.9138 27.7258 13.6339 29.3333 13.6339L29.3319 10.1758C29.3319 7.77664 27.3628 5.83337 24.9348 5.83337H7.06522C4.63719 5.83337 2.66806 7.77664 2.66806 10.1758L2.66667 13.7465C4.27423 13.7465 5.56891 14.9138 5.56891 16.5014C5.56891 18.089 4.27423 19.3676 2.66667 19.3676V22.8242C2.66667 25.2234 4.6344 27.1667 7.06383 27.1667H24.9362Z" stroke="#64748B" stroke-width="1.5" stroke-linecap="round" stroke-linejoin="round"/>
</svg>
